<svg width="186" height="104" viewBox="0 0 186 104" fill="none" xmlns="http://www.w3.org/2000/svg">
<path d="M42.2343 34.6538C42.337 55.6262 42.3655 78.2931 42.0004 78.025C42.0004 78.025 63.9997 80.638 88.5779 81.1343V40.262H42.2628C42.2571 38.3907 42.2457 36.5137 42.2343 34.6538Z" fill="#BF63F3"/>
<path d="M88.5658 5.98469H88.5715V40.2617H136.273V0.656006C136.273 0.656006 115.192 5.81924 88.5658 5.9904V5.98469Z" fill="#1868DB"/>
<path d="M85.8451 5.98479C85.8451 5.98479 85.7937 5.98479 85.7709 5.98479C71.8045 5.8878 56.4974 4.3645 42.0004 0C42.0061 0.696038 42.1772 20.6872 42.2628 40.2618H88.5779V5.98479C88.5779 5.98479 88.5322 5.98479 88.5037 5.98479C87.6251 5.98479 86.7351 5.98479 85.8451 5.98479Z" fill="#82B536"/>
<path d="M85.8451 5.98479C85.8451 5.98479 85.7937 5.98479 85.7709 5.98479C71.8045 5.8878 56.4974 4.3645 42.0004 0C42.0061 0.696038 42.1772 20.6872 42.2628 40.2618H88.5779V5.98479C88.5779 5.98479 88.5322 5.98479 88.5037 5.98479C87.6251 5.98479 86.7351 5.98479 85.8451 5.98479Z" fill="#82B536"/>
<path d="M104.227 45.7847L92.7882 85.0481C108.774 90.0573 126.187 94.4503 139.525 95.0722L150 59.1178L104.227 45.7847Z" fill="#FFA900"/>
<path d="M186 12.4458C185.812 11.4876 185.874 12.6916 185.527 12.5352C185.39 13.2948 184.525 13.7614 184.344 14.3373C184.443 14.5309 184.497 14.6402 184.309 14.7891C184.044 14.5235 183.696 14.9753 183.362 15.5139C183.052 16.1767 181.995 17.5569 181.931 17.187C181.926 16.8916 180.279 19.6594 180.443 18.8452C179.748 19.3516 179.012 20.0392 178.243 20.8211C178.166 20.3768 178.087 19.9374 178.007 19.5079C178 19.5204 178.007 19.5576 177.985 19.5303C177.886 19.7537 178.347 20.8782 177.839 21.2381C177.64 19.7959 176.892 14.5185 177.787 18.3859C176.46 14.8859 183.26 14.6873 185.214 12.4408C186.278 10.5171 179.25 14.4118 178.652 14.7643C178.652 14.7643 178.684 14.6228 178.684 14.6203C175.585 16.6036 177.722 8.49398 174.873 8C173.62 8.50887 173.239 10.4773 172.686 11.5844C172.8 11.5397 173.053 10.5096 173.432 10.3954C173.174 10.9266 172.157 13.533 172.512 12.1405C170.116 19.2845 167.971 18.9296 164.152 20.7466C163.956 20.8062 153.937 24.4577 155.093 25.597C155.725 25.1775 156.747 25.108 157.256 24.6687C157.265 24.4453 157.275 24.3211 157.526 24.2715C157.818 24.9814 159.899 23.1396 160.137 23.1147C160.236 23.6559 163.825 21.3448 163.165 22.0672C164.842 21.6998 166.969 20.8161 169.176 19.8902C168.423 23.3034 166.734 25.7981 166.734 25.7981C166.734 25.7981 161.749 23.6782 157.394 24.9591C159.606 25.9297 163.941 25.5399 166.538 26.8456C164.559 32.3067 163.267 36.5812 164.656 33.7241L164.69 33.9177C165.144 32.1875 166.416 30.5021 166.612 28.8166C166.297 28.0421 167.098 28.258 167.426 27.1559C168.333 27.6921 171.532 27.8857 170.059 29.1939C168.891 31.1499 165.576 32.8032 164.524 35C166.463 34.8734 168.683 32.2173 170 30.7974C170 30.7974 170.022 30.9389 170.022 30.9414C170.888 30.3283 171.632 28.5435 172.881 29.4818C172.879 29.4818 172.658 29.4843 172.653 29.4843C174.531 30.0577 179.471 36.4373 179.505 31.3709C179.352 28.4964 178.29 22.4445 178.29 22.4445C178.29 22.4445 179.481 20.5604 180.167 20.3792C180.77 19.9126 185.978 14.6972 185.995 12.4458H186ZM171.252 17.0753C171.761 15.6008 172.199 14.4242 172.018 15.4345C172.961 13.9029 173.762 11.2766 174.873 10.0082C175.813 12.3415 176.361 15.9756 176.361 15.9756C176.361 15.9756 173.417 17.2466 170.987 17.8423C171.076 17.5842 171.163 17.326 171.25 17.0753H171.252ZM168.142 26.3119C168.142 26.3119 169.472 21.9679 169.98 20.1906C169.98 20.2278 170.054 19.3342 170.057 19.3664C170.057 19.3664 174.761 17.9019 176.4 17.1771C176.691 18.7558 176.966 20.3445 177.209 21.9083C175.379 23.8172 172.147 27.7194 172.147 27.7194C172.147 27.7194 169.558 27.2254 168.142 26.3144V26.3119ZM178.131 31.3858C178.131 31.4354 178.131 31.7705 178.03 31.5943C178.035 31.6141 178.04 31.634 178.045 31.6538C178.037 31.6365 178.027 31.6538 178.03 31.5918C174.191 28.7421 171.012 29.2361 175.86 25.0832C175.632 25.1105 174.704 25.9247 174.699 25.9073C174.838 25.1775 177.663 22.941 176.162 24.7233C176.524 24.4279 176.981 24.0108 177.454 23.5417C177.812 26.158 178.174 28.8191 178.131 31.3833V31.3858Z" fill="#101214"/>
<path d="M20.7361 89.1009L20.7164 88.9942C20.3645 89.3677 19.5278 89.4938 19.326 89.8672C19.3752 90.0684 19.4441 90.146 19.2399 90.226C17.8028 91.3099 15.6004 92.4253 14.0107 93.451C13.836 92.7963 13.4349 91.5766 13.4349 91.5766C13.3832 91.7391 13.3119 90.7959 13.2651 90.4952C13.8016 90.4564 14.3085 90.4515 14.7687 90.5025L14.744 90.4637C14.7662 90.4734 14.8228 90.4467 14.8449 90.4928C16.2353 89.775 17.8323 89.7241 19.4269 89.0719C20.1529 89.2101 22.0107 88.1286 19.8477 88.2983C18.7059 88.6718 17.3648 88.3105 16.3017 88.9336C16.3017 88.9336 16.3386 88.8124 16.3386 88.81C14.9754 88.8851 12.6942 90.0296 12.6081 87.9152C12.5244 87.954 12.7705 88.1698 12.5023 88.2887C12.4555 88.0801 12.3694 87.8789 12.3325 87.68C12.517 87.6437 12.4777 87.7697 12.517 87.7867C12.5958 87.8667 11.8255 80.8349 11.1464 82.1686L11.043 82.1395C11.0553 82.3698 11.0627 82.5808 11.0553 82.799C10.6862 82.4426 10.5238 82.9251 10.2334 83.5676C10.1448 84.3848 9.59116 85.0152 9.34016 85.796C9.49765 85.8445 9.40659 85.8881 9.33031 85.8275C9.31308 86.4022 8.91444 86.6204 9.02763 87.1975C9.02763 87.1975 8.93905 87.1029 8.93659 87.1005C8.43459 88.1213 8.32385 90.2188 6.75387 90.2236C6.79078 90.3061 7.04669 90.0781 7.15743 90.3497C6.92365 90.3837 6.69481 90.4588 6.47334 90.4855C6.44873 90.3012 6.58406 90.3473 6.60375 90.3109C6.65051 90.3085 -2.20586 90.6043 0.520693 92.1925C1.21956 92.338 1.66988 92.9151 2.30969 93.2061C2.38351 93.0581 2.40073 93.1527 2.33429 93.2182C2.83629 93.2764 2.95442 93.6692 3.48103 93.6013C3.48103 93.6013 3.38259 93.6813 3.38013 93.6813C4.92304 94.3166 6.25186 95.0198 5.23802 96.7414C5.33153 96.7487 5.2577 96.9596 5.23802 96.9232C4.99686 97.3063 2.52624 102.398 3.00117 103.637C3.07499 104.297 3.50809 103.95 4.14052 103.446C5.4029 101.959 6.34045 101.923 7.03439 100.689C7.03439 100.689 7.06638 100.815 7.06884 100.817C8.14913 100.185 9.64036 97.8058 11.0356 98.0071C11.6434 98.0871 15.972 102.464 15.9326 101.254L16.0359 101.22C15.9572 101.057 15.9203 100.044 15.7825 99.4959C15.0689 98.058 15.4626 97.3063 14.712 96.4019C14.712 96.4019 14.8375 96.4164 14.84 96.4164C14.3749 95.4514 14.3011 94.4936 15.3002 93.9044C15.2239 93.8535 15.0959 94.1978 14.8548 94.0256C15.059 93.8607 15.2387 93.6668 15.4355 93.5164C15.5512 93.6619 15.4011 93.7007 15.3986 93.7444C15.4823 93.8292 22.4192 88.9676 20.7361 89.1034V89.1009ZM11.6484 95.3301C10.3909 97.1269 8.89967 95.0901 7.39613 94.5009C7.81939 93.3685 8.2328 92.1852 8.69297 91.145C9.67728 91.2687 11.8551 90.0151 12.1381 91.1402C12.5441 92.8618 13.5506 94.3748 11.6484 95.3277V95.3301ZM9.63053 89.4089L9.58377 89.4138C9.60346 89.3992 9.60838 89.3313 9.66006 89.3337C9.8077 87.3212 10.2408 86.2494 11.0873 84.2587C11.9781 86.0361 11.2177 87.5758 11.7247 89.4768C10.7256 89.6998 10.5878 89.6732 9.39921 89.7653C9.4755 89.6417 9.55178 89.5229 9.63053 89.4089ZM5.53331 93.2255C4.29062 92.8909 3.07745 92.435 1.79784 91.7367C2.2211 90.8831 6.39213 91.436 7.31492 91.2881C7.14267 91.7488 6.98026 92.2022 6.84492 92.6362L6.85968 92.6314C6.85968 92.6314 6.75879 93.0727 6.75141 92.9612C6.61606 93.1891 6.46349 93.4849 6.306 93.8147C6.02055 93.611 5.53085 93.2279 5.53085 93.2279L5.53331 93.2255ZM7.88336 98.783C6.57914 99.6729 5.27247 101.135 4.06668 102.151C3.28169 101.361 6.58407 97.1318 6.96057 95.626C7.55362 95.9073 8.21557 96.334 7.50194 95.6769C7.35676 95.5411 8.93167 96.8214 9.46073 97.156C8.82339 97.6555 8.47887 98.4702 7.88582 98.783H7.88336ZM13.4423 96.0188C13.9197 96.916 14.4512 98.463 14.7416 99.6438C13.4275 98.7345 12.5884 97.9635 11.5081 96.9863C11.5819 96.9184 11.6557 96.8505 11.7271 96.7826C11.5942 96.7947 12.0273 96.4407 11.9757 96.5353C12.3226 96.3292 12.7779 96.0164 13.2479 95.6648C13.3561 95.8466 13.4374 96.0188 13.4374 96.0188H13.4423Z" fill="#101214"/>
</svg>
