<svg width="163" height="67" viewBox="0 0 163 67" fill="none" xmlns="http://www.w3.org/2000/svg">
<path d="M115.644 31.5212C115.196 31.5212 114.759 31.5267 114.317 31.5433C107.571 14.243 93.395 7 72.2631 7C41.9752 7 25.355 22.155 25.355 61.0516H146.999C143.571 41.7112 131.982 31.5212 115.638 31.5212H115.644Z" fill="#1868DB"/>
<path d="M26.7542 66.2756H57.3296C54.5928 50.8275 45.3372 42.6943 32.2832 42.6943C20.1249 42.6943 11.8811 48.8703 6.99902 66.2756H26.7542Z" fill="#FFA900"/>
<path d="M32.2841 42.6943C30.36 42.6943 28.541 42.8492 26.8104 43.1809C25.8539 48.4777 25.3618 54.4103 25.3618 61.0507H56.07C52.3213 49.0029 43.779 42.6999 32.2841 42.6999V42.6943Z" fill="#164B35"/>
<path d="M133.466 8.81931C133.17 8.7558 133.006 8.45034 132.65 8.63178C131.579 9.17913 130.209 10.9694 129.777 11.7133C128.739 12.2667 126.889 14.7404 126.148 16.0196C125.703 16.8451 124.454 18.9861 124.454 18.9861L124.3 18.974C124.3 18.974 121.899 15.7504 120.677 15.0912C120.46 15.0186 120.221 15.0881 120.012 15.4117C119.9 15.5266 120.726 16.5487 120.919 16.5608C121.107 16.458 121.969 17.7765 122.495 18.4418C124.143 20.5344 124.463 20.7158 125.241 20.0445C126.535 18.9256 132.126 10.9392 133.466 8.81628V8.81931Z" fill="#101214"/>
<path d="M13.4643 20.2444C13.168 20.1808 13.0047 19.8754 12.6478 20.0568C11.5773 20.6042 10.2074 22.3945 9.77499 23.1384C8.73774 23.6918 6.88703 26.1654 6.14614 27.4446C5.70161 28.2702 4.45269 30.4111 4.45269 30.4111L4.29846 30.3991C4.29846 30.3991 1.89737 27.1754 0.67566 26.5162C0.457929 26.4436 0.219036 26.5132 0.0103773 26.8368C-0.101512 26.9517 0.72405 27.9737 0.917589 27.9858C1.10508 27.883 1.96693 29.2016 2.49311 29.8669C4.14121 31.9595 4.46175 32.1409 5.23893 31.4695C6.53322 30.3506 12.1247 22.3642 13.4643 20.2413V20.2444Z" fill="#101214"/>
<path d="M162.563 0.282443C162.22 0.209039 162.031 -0.144038 161.619 0.0656864C160.381 0.698355 158.798 2.7677 158.298 3.62757C157.099 4.26723 154.96 7.12647 154.104 8.60503C153.59 9.55928 152.146 12.034 152.146 12.034L151.968 12.0201C151.968 12.0201 149.193 8.29392 147.78 7.53192C147.529 7.44803 147.253 7.52844 147.012 7.90245C146.882 8.03528 147.836 9.21666 148.06 9.23064C148.277 9.1118 149.273 10.6359 149.881 11.4049C151.786 13.8237 152.157 14.0333 153.055 13.2574C154.551 11.9641 161.014 2.73272 162.563 0.278944V0.282443Z" fill="#101214"/>
</svg>
