<svg width="174" height="55" viewBox="0 0 174 55" fill="none" xmlns="http://www.w3.org/2000/svg">
<path d="M149.304 31.0835L148.865 36.2696H146.739C143.353 36.2696 141.596 38.976 141.596 41.5832V53.3015H135.616V31.0835H141.298L141.426 33.8607C142.616 31.962 144.699 31.0835 147.278 31.0835H149.304Z" fill="#002856"/>
<path d="M107.745 53.3013H101.752V41.5547C101.752 39.0892 101.525 36.0002 98.0816 36.0002C94.7517 36.0002 93.4198 38.4091 93.4198 41.2005V53.2872H87.426V31.0834H92.9947L93.1222 33.9173C94.3125 32.0186 96.5371 30.5308 99.8103 30.5308C105.861 30.5308 107.759 34.8525 107.759 39.3301L107.745 53.3013Z" fill="#002856"/>
<path d="M84.8048 48.1154L84.3797 53.174C82.991 53.5424 81.5599 53.7266 80.1146 53.6982C74.4609 53.6982 72.8173 51.1052 72.8173 45.8908V24.8206H78.8252V31.0835H84.7906L84.3797 36.2696H78.8252V45.4232C78.8252 47.5203 79.392 48.6397 81.5457 48.6397C82.651 48.6538 83.7562 48.4696 84.8048 48.1154Z" fill="#002856"/>
<path d="M70.8612 31.0835L70.3936 36.2696H68.7641C65.3917 36.2696 63.7055 38.976 63.7055 41.5832V53.3015H57.7118V31.0835H63.3796L63.493 33.8607C64.6974 31.9762 66.7803 31.0835 69.3592 31.0835H70.8612Z" fill="#002856"/>
<path d="M30.6337 50.8359C26.5671 53.018 22.5004 54.2649 17.1301 54.1091C7.18302 53.8115 -0.000976562 47.6194 -0.000976562 37.1906C-0.000976562 26.8042 7.25387 20.1587 17.1443 20.0028C22.1603 19.932 26.6379 21.1931 30.152 24.2962L25.9153 28.5613C23.7473 26.705 20.5591 25.6282 16.7333 25.7982C10.5129 26.0816 6.75793 30.6159 6.67291 36.8221C6.58789 43.5527 10.7254 48.2003 17.1868 48.3704C20.2332 48.4412 22.4012 48.0445 24.2857 47.1943V40.322H17.5693L18.0228 34.6684H30.6196L30.6337 50.8359Z" fill="#002856"/>
<path d="M132.938 44.318H116.488C116.955 47.152 119.194 48.8665 121.971 48.9515C124.678 49.0223 126.18 48.2147 128.163 46.2026L132.074 49.164C129.297 52.5931 125.953 53.84 122.141 53.84C115.453 53.84 110.451 49.164 110.451 42.1926C110.451 35.2211 115.439 30.5452 121.9 30.5452C129.028 30.5452 132.924 34.8669 132.924 42.5185L132.938 44.318ZM126.931 39.6562C126.746 36.8506 124.649 35.0794 121.744 35.1928C118.854 35.3062 116.884 37.2049 116.488 39.6562H126.931Z" fill="#002856"/>
<path d="M53.9285 38.7493V53.3015H48.629L48.5015 51.1052C46.8862 53.1173 44.2506 53.8399 41.53 53.8399C37.4492 53.8399 33.5951 51.8278 33.51 47.1377C33.3967 39.7695 41.8134 39.2452 47.0987 39.2452H48.1614V38.9476C48.1614 36.5105 46.5461 35.1927 43.5138 35.1927C41.3033 35.2069 39.1921 36.0429 37.5767 37.559L34.1193 34.045C36.8966 31.7353 40.4106 30.4884 44.0097 30.5451C50.8962 30.5451 53.9285 33.7191 53.9285 38.7493ZM48.1614 43.6094H47.3254C44.4915 43.6094 39.5038 43.7511 39.518 46.7268C39.5463 50.921 48.1614 49.5749 48.1614 44.5305V43.6094Z" fill="#002856"/>
<path d="M144.629 50.7085C144.671 49.3624 145.79 48.3138 147.122 48.3563C148.469 48.3988 149.517 49.5182 149.475 50.8502C149.432 52.168 148.355 53.2023 147.052 53.2023C145.705 53.2023 144.629 52.1113 144.629 50.7793C144.629 50.7652 144.629 50.7368 144.629 50.7085ZM147.052 53.7124C148.695 53.6841 150.027 52.338 149.999 50.6801C149.971 49.0365 148.624 47.7045 146.967 47.7329C145.337 47.7612 144.019 49.079 144.019 50.7085C144.005 52.3522 145.337 53.6983 146.981 53.7124C147.009 53.7124 147.037 53.7124 147.052 53.7124ZM146.414 50.9494H147.023L147.93 52.4372H148.511L147.548 50.921C148.058 50.8644 148.426 50.581 148.426 49.9717C148.426 49.2915 148.029 48.994 147.207 48.994H145.904V52.4372H146.428L146.414 50.9494ZM146.414 50.5101V49.4474H147.122C147.491 49.4474 147.873 49.5182 147.873 49.9575C147.873 50.4818 147.477 50.5243 147.037 50.5243L146.414 50.5101Z" fill="#002856"/>
<path d="M160.905 6.70137L161.803 5.89186C161.803 5.89186 162.002 5.41416 161.843 5.09126C161.746 4.89221 161.596 4.69759 161.432 4.54719C161.1 4.24641 160.706 4.14906 160.534 4.62236C160.512 4.60909 160.476 4.60911 160.445 4.58699C160.384 5.18857 159.64 5.21956 159.371 5.66632C159.477 5.74151 159.362 5.68397 159.362 5.68397C159.402 6.15727 158.95 6.42713 158.95 6.43155C158.362 7.33834 157.283 8.35129 156.756 9.42617L156.778 9.43497L156.796 9.45268C156.991 9.47038 156.708 9.73579 156.677 9.62963C156.053 9.95253 155.213 10.9301 155.089 11.6201C155.221 11.7086 155.151 11.828 155.115 11.7749C154.669 11.744 151.121 15.6011 153.019 15.5215L153.134 15.6542C153.395 15.4508 155.199 13.8893 155.213 13.907C155.575 14.0972 155.509 12.3809 155.885 13.1595C157.871 12.7879 160.335 8.24954 160.335 8.24954L160.392 7.70991C160.392 7.70991 161.109 7.26755 160.901 6.69694L160.905 6.70137Z" fill="#101214"/>
<path d="M145.853 3.83494L145.658 3.33068C145.658 3.33068 146.092 2.60964 145.645 2.19827L146.07 1.06592C146.07 1.06592 146.025 0.548375 145.738 0.336054C145.556 0.203353 145.335 0.0971777 145.123 0.0440974C144.694 -0.0709099 144.296 0.0220195 144.358 0.526282C144.331 0.526282 144.3 0.539507 144.26 0.535084C144.482 1.09685 143.836 1.464 143.805 1.98596C143.933 2.00365 144.03 2.04346 143.96 2.04346L143.8 2.0081C144.052 2.41062 143.495 2.51677 143.982 2.93699L143.778 2.85735C143.672 3.93665 143.177 5.3256 143.208 6.52433H143.234C143.234 6.52433 143.305 6.82511 143.234 6.74549C142.827 7.32053 142.535 8.57235 142.734 9.24027C142.894 9.25797 141.04 14.6014 142.686 13.6592L142.849 13.7256C142.986 13.4248 143.097 13.1727 143.491 12.9117C143.473 12.8586 143.508 12.863 143.336 12.8276C143.314 12.8099 143.265 12.779 143.194 12.7701C142.779 12.6905 144.15 10.2444 144.15 10.2444C145.742 9.00142 145.848 3.83937 145.848 3.83937L145.853 3.83494Z" fill="#101214"/>
<path d="M173.888 14.0351C173.738 13.6149 173.441 13.3407 173.061 13.6769C173.048 13.6548 173.017 13.637 172.999 13.6017C172.658 14.1015 171.99 13.7742 171.544 14.044C171.601 14.159 171.526 14.0573 171.526 14.0573C171.336 14.4908 170.814 14.5173 170.814 14.5217C169.863 15.0437 168.434 15.4197 167.465 16.1186L167.479 16.1362L167.487 16.1584C167.651 16.2645 167.275 16.3663 167.297 16.2557C166.594 16.2424 165.391 16.7069 164.957 17.2509C165.032 17.3925 165.072 16.9944 165.32 17.45C165.178 17.5163 165.063 17.649 164.922 17.7021C164.789 17.3925 164.913 17.4632 164.904 17.4013C164.524 17.1624 159.574 18.8787 161.282 19.7059L161.321 19.8784C161.649 19.8209 162.339 19.6882 162.308 19.6218C162.14 19.237 163.98 19.299 163.984 19.3255L164.931 18.9849C166.855 19.5953 171.177 16.7732 171.177 16.7732L171.486 16.3265C171.486 16.3265 172.327 16.2778 172.415 15.6762L173.587 15.3887C173.587 15.3887 173.99 15.0614 173.999 14.7031C174.008 14.4819 173.968 14.2386 173.897 14.0307L173.888 14.0351Z" fill="#101214"/>
</svg>
