<svg width="144" height="105" viewBox="0 0 144 105" fill="none" xmlns="http://www.w3.org/2000/svg">
<path d="M78.8121 42.0372C78.1527 41.9606 77.4677 41.9053 76.7658 41.867C47.7722 40.4035 36.2981 56.719 31.7587 69.9416C28.2957 78.795 18.3957 85.8828 0.00404714 81.3136V102.798C-0.0682773 102.7 4.36053 104.436 9.97205 104.717C32.3713 105.849 44.3091 96.0465 50.6779 85.4318C50.7077 85.4063 50.7375 85.3808 50.7673 85.3553C50.7715 85.351 50.8268 85.2361 50.9162 85.0319C52.7583 81.8879 54.8004 76.6423 55.579 74.7151C58.4336 67.6698 66.1468 62.3901 78.8121 63.4027V42.0287V42.0372Z" fill="#82B536"/>
<path d="M78.9155 41.5991H0.0180664V63.2922H78.9155V41.5991Z" fill="#BF63F3"/>
<path d="M34.5925 63.2926H75.1282C75.5919 63.2841 76.0599 63.2841 76.5364 63.2926H78.8168V42.0377C78.1573 41.9612 77.4724 41.9059 76.7704 41.8676C52.5205 40.6466 40.5316 51.8568 34.5968 63.2926H34.5925Z" fill="#164B35"/>
<path d="M78.8633 73.2049L78.791 28.1042L99.9991 50.98L78.8676 73.2006L78.8633 73.2049Z" fill="#FFA900"/>
<path d="M54.9757 28.6998C50.4363 15.4772 38.9622 -1.37434 9.96863 0.0891607C4.35711 0.374204 -0.0716952 2.10574 0.000629172 2.00788V23.4925C17.418 19.1658 27.7477 25.0623 31.1554 33.4775C31.9382 35.4047 33.9803 40.6504 35.8182 43.7944C35.9076 43.9986 35.9629 44.1134 35.9671 44.1177C35.9927 44.1432 36.0267 44.1688 36.0565 44.1943C42.4253 54.8089 54.363 64.6068 76.7623 63.4794C82.3739 63.1943 86.8027 61.4628 86.7303 61.5606V40.076C68.3387 44.641 58.4387 37.5575 54.9757 28.7041V28.6998Z" fill="#1868DB"/>
<path d="M78.8129 41.3908L78.8469 63.3051C83.4331 62.7818 86.7941 61.4714 86.7303 61.5608V40.0762C83.8883 40.7824 81.2549 41.2078 78.8129 41.3908Z" fill="#164B35"/>
<path d="M106.832 15.4112C105.498 14.806 102.397 16.4192 102.751 13.9041C102.428 14.8638 103.842 9.03801 102.676 9.87233C102.585 9.759 102.214 10.6898 102.337 10.7187C102.479 11.7025 101.552 13.7426 101.46 15.3051C101.453 15.2521 93.2784 15.1339 96.9456 16.125C97.6246 16.207 102.809 15.6716 100.972 18.669C101.456 25.7246 102.611 20.7186 102.549 16.4626C103.317 16.6241 108.86 16.5397 106.83 15.4112H106.832Z" fill="#101214"/>
<path d="M143.531 23.8364C141.699 23.482 139.484 24.555 138.997 22.7537C139.585 22.4451 139.212 17.0678 138.463 19.9421C138.593 20.0024 138.766 19.9518 138.691 20.0772C137.938 20.1109 138.776 21.0996 138.441 21.2804C137.974 21.0417 138.778 22.3438 138.309 22.0159C138.02 22.4933 137.991 23.1275 138.02 23.7955C138.289 24.0028 130.885 23.3228 134.061 24.7093C134.285 23.9883 134.097 25.1796 135.149 24.4827C136.137 24.8974 136.792 25.0614 138.082 25.0566C137.557 26.5637 138.988 32.6885 139.291 28.1744C139.513 27.2581 138.47 23.9884 140.801 25.2326C141.321 24.6033 145.357 24.9987 143.527 23.834L143.531 23.8364Z" fill="#101214"/>
<path d="M128.581 12.737C126.748 12.3826 124.533 13.4556 124.047 11.6544C124.634 11.3457 124.261 5.96842 123.512 8.84274C123.642 8.90303 123.815 8.85237 123.741 8.97776C122.987 9.01152 123.825 10.0002 123.49 10.181C123.023 9.9423 123.827 11.2444 123.358 10.9165C123.069 11.3939 123.04 12.0281 123.069 12.6961C123.339 12.9034 115.932 12.2234 119.11 13.61C119.334 12.889 119.146 14.0802 120.199 13.3833C121.186 13.7981 121.841 13.962 123.131 13.9572C122.693 15.4064 123.856 21.4734 124.432 17.0944C124.388 16.371 123.618 12.8407 125.852 14.1332C126.373 13.5039 130.408 13.8993 128.578 12.7347L128.581 12.737Z" fill="#101214"/>
<path d="M124.092 35.2615C122.26 34.907 120.045 35.9801 119.558 34.1788C120.146 33.8701 119.773 28.4928 119.024 31.3672C119.154 31.4274 119.327 31.3768 119.252 31.5022C118.499 31.536 119.337 32.5246 119.002 32.7055C118.535 32.4667 119.339 33.7689 118.87 33.4409C118.581 33.9184 118.552 34.5526 118.581 35.2205C118.85 35.4279 111.444 34.7479 114.622 36.1344C114.846 35.4134 114.658 36.6046 115.71 35.9077C116.698 36.3225 117.353 36.4865 118.643 36.4816C118.118 37.9887 119.549 44.1135 119.852 39.5995C120.074 38.6832 119.031 35.4134 121.362 36.6577C121.882 36.0283 125.918 36.4238 124.088 35.2591L124.092 35.2615Z" fill="#101214"/>
</svg>
