<svg width="160" height="33" viewBox="0 0 160 33" fill="none" xmlns="http://www.w3.org/2000/svg">
<path d="M59.1852 14.4275L57.8521 11.4948L53.3198 1.09709C53.0532 0.563871 52.4311 0.297264 51.809 0.475002C51.5424 0.563871 51.3647 0.830479 51.1869 1.09709L45.3216 14.4275C45.055 14.9607 45.3216 15.6716 45.9437 15.9382C46.5657 16.2048 47.1878 15.9382 47.4544 15.3161L48.432 13.0056H56.0747L57.0523 15.3161C57.3189 15.8494 57.941 16.116 58.5631 15.9382C59.1852 15.6716 59.4518 14.9607 59.1852 14.4275ZM49.4096 10.7838L52.2534 4.38524L55.0972 10.7838H49.4096Z" fill="#B7B9BE"/>
<path d="M7.81902 16.027C3.46443 16.027 -0.00146484 12.5611 -0.00146484 8.20647C-0.00146484 3.85188 3.46443 0.385986 7.81902 0.385986C9.68527 0.385986 11.3738 1.00807 12.7957 2.16337C13.24 2.60772 13.3289 3.31867 12.9734 3.76301C12.5291 4.20736 11.8181 4.29623 11.3738 3.94075C9.06319 1.98563 5.50842 2.34111 3.5533 4.65171C1.59818 6.9623 1.95366 10.5171 4.26425 12.4722C6.30824 14.1607 9.32979 14.1607 11.3738 12.4722C11.8181 12.0278 12.618 12.1167 12.9734 12.6499C13.3289 13.1831 13.3289 13.8941 12.7957 14.2496C11.4627 15.4049 9.68527 16.027 7.81902 16.027Z" fill="#B7B9BE"/>
<path d="M39.9892 13.7166H33.6795V9.36201H39.1005C39.7226 9.36201 40.2558 8.8288 40.2558 8.20672C40.2558 7.58463 39.7226 7.05142 39.1005 7.05142H33.6795V2.60796H39.9892C40.6113 2.60796 41.1445 2.07474 41.1445 1.45266C41.1445 0.919445 40.6113 0.38623 39.9892 0.38623H32.5242C31.9021 0.38623 31.3689 0.919445 31.3689 1.54153V14.8719C31.3689 15.494 31.9021 16.0272 32.5242 16.0272H39.9892C40.6113 16.0272 41.1445 15.494 41.1445 14.8719C41.1445 14.2498 40.6113 13.7166 39.9892 13.7166Z" fill="#B7B9BE"/>
<path d="M25.7706 16.0272H19.1942C18.5722 16.0272 18.0389 15.494 18.0389 14.8719V1.54153C18.0389 0.919445 18.5722 0.38623 19.1942 0.38623C19.8163 0.38623 20.3495 0.919445 20.3495 1.54153V13.7166H25.7706C26.3926 13.7166 26.9259 14.2498 26.9259 14.8719C26.9259 15.494 26.3926 16.0272 25.7706 16.0272Z" fill="#B7B9BE"/>
<path d="M82.2016 4.11833C81.935 3.58511 81.3129 3.3185 80.6908 3.49624C80.1576 3.76285 79.891 4.38493 80.0688 5.00702C80.3354 5.54023 80.9574 5.80684 81.5795 5.6291C82.2016 5.36249 82.4682 4.74041 82.2016 4.11833Z" fill="#B7B9BE"/>
<path d="M83.5355 7.22893C83.2689 6.60685 82.6468 6.34024 82.0247 6.60685C81.4915 6.87346 81.2249 7.49554 81.4026 8.11763C81.6692 8.65084 82.2913 8.91745 82.9134 8.73971C83.5355 8.4731 83.8021 7.76215 83.5355 7.22893Z" fill="#B7B9BE"/>
<path d="M80.1593 2.60796H80.2482C80.2482 2.60796 80.3371 2.60796 80.3371 2.51909C80.3371 2.51909 80.4259 2.51909 80.4259 2.43022C80.4259 2.34135 80.5148 2.43022 80.5148 2.34135C80.5148 2.25248 80.6037 2.25248 80.6037 2.25248L80.6926 2.16361H80.7814C80.7814 2.07474 80.8703 2.07474 80.8703 1.98587V1.89701V1.80814V1.71927V1.6304V1.54153V1.45266V1.36379V1.27492C80.8703 1.27492 80.8703 1.18605 80.7814 1.18605C80.7814 1.18605 80.7814 1.09718 80.6926 1.09718C80.6926 1.09718 80.6925 1.00831 80.6037 1.00831L80.5148 0.919445L80.4259 0.830576L80.3371 0.741707C80.3371 0.741707 80.2482 0.741707 80.2482 0.652838C80.2482 0.652838 80.1593 0.652838 80.1593 0.563969H80.0705H79.9816C79.9816 0.38623 79.9816 0.38623 79.9816 0.38623C79.8927 0.38623 79.8039 0.38623 79.715 0.38623H79.6261H79.5372H79.4484C79.4484 0.38623 79.3595 0.38623 79.3595 0.4751C79.3595 0.4751 79.2706 0.4751 79.2706 0.563969C79.2706 0.563969 79.1818 0.563969 79.1818 0.652838C79.1818 0.741707 79.0929 0.741707 79.0929 0.741707L79.004 0.830576C78.9152 0.919445 78.9152 0.919445 78.9152 1.00831C78.9152 1.00831 78.9152 1.09718 78.8263 1.09718V1.18605V1.27492V1.36379C78.8263 1.45266 78.8263 1.54153 78.8263 1.6304V1.71927V1.80814V1.89701C78.8263 1.89701 78.8263 1.98587 78.9152 1.98587C78.9152 1.98587 78.9152 2.07474 79.004 2.07474C79.004 2.07474 79.004 2.16361 79.0929 2.16361L79.1818 2.25248L79.0929 2.43022L79.1818 2.51909C79.1818 2.51909 79.2706 2.51909 79.2706 2.60796C79.3595 2.60796 79.4484 2.69683 79.4484 2.69683H79.5372H79.6261H79.715H79.8039H79.8927C80.0705 2.60796 80.1593 2.60796 80.1593 2.60796Z" fill="#B7B9BE"/>
<path d="M101.043 0.474527C100.509 0.207919 99.7985 0.474527 99.5319 1.09661L94.733 11.8498L91.1782 2.51852C91.0005 2.07417 90.5561 1.80756 90.1118 1.80756C89.6674 1.80756 89.2231 2.07417 89.0453 2.51852L85.4906 11.8498L84.7796 10.339V10.2501C84.7796 10.2501 84.7796 10.1613 84.6907 10.1613C84.6907 10.1613 84.6907 10.0724 84.6019 10.0724C84.513 10.0724 84.6019 9.98352 84.513 9.98352L84.4241 9.89466L84.3353 9.80579L84.2464 9.71692C84.2464 9.71692 84.1575 9.71692 84.1575 9.62805C84.1575 9.53918 84.0687 9.62805 84.0687 9.53918C84.0687 9.45031 83.9798 9.53918 83.9798 9.53918H83.8909H83.8021C83.7132 9.53918 83.6243 9.53918 83.5354 9.53918H83.4466H83.3577H83.2688C82.7356 9.80579 82.469 10.4279 82.6468 11.05L84.513 15.2268C84.7796 15.76 85.4017 16.0266 86.0238 15.8489C86.2904 15.76 86.557 15.4934 86.6459 15.2268L90.1118 6.16215L93.5777 15.2268C93.7554 15.6712 94.1109 15.9378 94.6441 15.9378C95.0884 15.9378 95.5328 15.6712 95.7105 15.2268L101.576 1.89643C101.931 1.36322 101.665 0.741134 101.043 0.474527Z" fill="#B7B9BE"/>
<path d="M116.15 14.4275L114.816 11.4948L110.195 1.09709C109.929 0.563871 109.307 0.297264 108.685 0.475002C108.418 0.563871 108.24 0.830479 108.062 1.09709L102.197 14.4275C101.93 14.9607 102.197 15.6716 102.819 15.9382C103.352 16.2048 104.063 15.9382 104.33 15.3161L105.307 13.0056H112.95L113.928 15.3161C114.194 15.8494 114.816 16.116 115.439 15.9382C116.15 15.6716 116.416 14.9607 116.15 14.4275ZM106.374 10.7838L109.218 4.38524L112.062 10.7838H106.374Z" fill="#B7B9BE"/>
<path d="M127.615 0.38623H118.106C117.484 0.38623 116.95 0.919445 116.95 1.54153C116.95 2.16361 117.484 2.69683 118.106 2.69683H121.749V14.8719C121.749 15.494 122.283 16.0272 122.905 16.0272C123.527 16.0272 124.06 15.494 124.06 14.8719V2.69683H127.704C128.326 2.69683 128.859 2.16361 128.859 1.54153C128.77 0.919445 128.237 0.38623 127.615 0.38623Z" fill="#B7B9BE"/>
<path d="M141.39 13.7164H135.081V9.36177H140.502C141.124 9.36177 141.657 8.82856 141.657 8.20647C141.657 7.58439 141.124 7.05117 140.502 7.05117H135.081V2.60772H141.39C142.012 2.60772 142.546 2.0745 142.546 1.45242C142.546 0.830334 142.012 0.297119 141.39 0.297119H133.925C133.303 0.297119 132.77 0.830334 132.77 1.45242V14.7828C132.77 15.4049 133.303 15.9381 133.925 15.9381H141.39C142.012 15.9381 142.546 15.4049 142.546 14.7828C142.546 14.1607 142.012 13.7164 141.39 13.7164Z" fill="#B7B9BE"/>
<path d="M75.9823 14.1607L72.6942 9.53951C75.0936 8.47308 76.2489 5.62927 75.1825 3.2298C74.3827 1.45242 72.6942 0.297119 70.739 0.297119H64.9625C64.3405 0.297119 63.8073 0.830334 63.8073 1.45242V14.7828C63.8073 15.4049 64.3405 15.9381 64.9625 15.9381C65.5846 15.9381 66.1178 15.4049 66.1178 14.7828V9.89499H70.2058L74.1161 15.4049C74.4715 15.9381 75.1825 16.027 75.7157 15.6715C76.2489 15.4049 76.4267 14.6939 75.9823 14.1607ZM66.2067 2.69659H70.8279C72.2498 2.69659 73.3162 3.85189 73.3162 5.18492C73.3162 6.60683 72.1609 7.67326 70.8279 7.67326H66.2067V2.69659Z" fill="#B7B9BE"/>
<path d="M159.785 14.1607L156.497 9.53951C158.896 8.47308 160.051 5.62927 158.985 3.2298C158.185 1.45242 156.497 0.297119 154.542 0.297119H148.765C148.143 0.297119 147.61 0.830334 147.61 1.45242V14.7828C147.61 15.4049 148.143 15.9381 148.765 15.9381C149.387 15.9381 149.92 15.4049 149.92 14.7828V9.89499H154.008L157.919 15.4049C158.274 15.9381 158.985 16.027 159.518 15.6715C160.051 15.316 160.14 14.6939 159.785 14.1607ZM149.92 2.69659H154.542C155.963 2.69659 157.03 3.85189 157.03 5.18492C157.03 6.60683 155.875 7.67326 154.542 7.67326H149.92V2.69659Z" fill="#B7B9BE"/>
<path d="M131.163 27.7645H130.985C130.096 27.5868 129.652 27.0536 129.741 26.6981C129.741 26.2537 130.274 25.8983 131.34 25.8983C131.874 25.8983 132.407 26.076 132.762 26.5203C132.94 26.7869 133.384 26.8758 133.651 26.6981C133.918 26.5203 134.006 26.076 133.829 25.8094C133.207 25.0984 132.318 24.6541 131.34 24.743C129.563 24.743 128.585 25.7205 128.497 26.6981C128.408 27.6756 129.03 28.8309 130.807 29.1864H130.985C132.407 29.453 132.94 29.7196 132.94 30.3417C132.94 31.1415 131.962 31.2304 131.518 31.2304C130.718 31.3193 130.007 31.0527 129.474 30.4306C129.296 30.0751 128.941 29.9862 128.585 30.164C128.23 30.3417 128.141 30.6972 128.319 31.0527C128.497 31.3193 128.763 31.5859 129.119 31.8525C129.83 32.2968 130.629 32.5634 131.518 32.5634C133.207 32.5634 134.273 31.6748 134.273 30.4306C134.095 28.3866 132.318 28.0311 131.163 27.7645Z" fill="#B7B9BE"/>
<path d="M85.3075 24.6543C84.952 24.4766 84.5965 24.5654 84.4188 24.9209L82.6414 28.2091L80.864 24.9209C80.6863 24.5654 80.3308 24.4766 79.9754 24.6543C79.6199 24.832 79.531 25.1875 79.7087 25.543L82.0193 29.7198V31.7638C82.0193 32.1193 82.2859 32.3859 82.6414 32.3859C82.9969 32.3859 83.2635 32.1193 83.2635 31.7638V29.631L85.5741 25.4541C85.7518 25.1875 85.663 24.832 85.3075 24.6543Z" fill="#B7B9BE"/>
<path d="M32.7847 31.4082L32.1626 29.9863L29.9409 24.9207C29.852 24.5653 29.4077 24.4764 29.1411 24.5653C28.9633 24.6541 28.8745 24.743 28.7856 24.9207L25.9418 31.4082C25.7641 31.7637 25.9418 32.1191 26.2973 32.2969C26.6528 32.4746 27.0082 32.2969 27.186 31.9414L27.6303 30.875H31.1851L31.6294 31.9414C31.8072 32.2969 32.1626 32.3857 32.5181 32.2969C32.7847 32.1191 32.9625 31.7637 32.7847 31.4082ZM28.1635 29.5419L29.4077 26.787L30.6519 29.5419H28.1635Z" fill="#B7B9BE"/>
<path d="M61.0447 31.4082L60.4227 29.9863L58.2009 24.9207C58.0232 24.5653 57.6677 24.4764 57.3122 24.5653C57.1345 24.6541 57.0456 24.743 56.9568 24.9207L54.1129 31.4082C53.9352 31.7637 54.1129 32.1191 54.4684 32.2969C54.8239 32.4746 55.1794 32.2969 55.3571 31.9414L55.8015 30.875H59.4451L59.8894 31.9414C60.0672 32.2969 60.4226 32.3857 60.7781 32.2969C61.0447 32.1191 61.1336 31.7637 61.0447 31.4082ZM56.3347 29.5419L57.5788 26.787L58.823 29.5419H56.3347Z" fill="#B7B9BE"/>
<path d="M97.4819 24.5654H92.8607C92.5053 24.5654 92.2386 24.832 92.2386 25.1875C92.2386 25.543 92.5053 25.8096 92.8607 25.8096H94.5493V31.675C94.5493 32.0304 94.8159 32.297 95.1713 32.297C95.5268 32.297 95.7934 32.0304 95.7934 31.675V25.8096H97.4819C97.8374 25.8096 98.104 25.543 98.104 25.1875C98.1929 24.832 97.8374 24.5654 97.4819 24.5654Z" fill="#B7B9BE"/>
<path d="M106.103 32.297C105.747 32.297 105.48 32.0304 105.48 31.675V25.1875C105.48 24.832 105.747 24.5654 106.103 24.5654C106.458 24.5654 106.725 24.832 106.725 25.1875V31.675C106.814 32.0304 106.458 32.297 106.103 32.297Z" fill="#B7B9BE"/>
<path d="M118.1 32.2968C115.967 32.2968 114.189 30.5194 114.189 28.3866C114.189 26.2537 115.967 24.4763 118.1 24.4763C118.988 24.4763 119.877 24.8318 120.588 25.365C120.855 25.6316 120.943 25.9871 120.677 26.2537C120.41 26.5203 120.055 26.6092 119.788 26.3426C118.722 25.4539 117.033 25.5427 116.144 26.698C115.256 27.7645 115.345 29.453 116.5 30.3417C117.477 31.1415 118.899 31.1415 119.788 30.3417C120.055 30.0751 120.499 30.1639 120.677 30.4306C120.855 30.6972 120.855 31.1415 120.588 31.3192C119.877 32.0302 118.988 32.2968 118.1 32.2968Z" fill="#B7B9BE"/>
<path d="M72.3322 32.297H69.1329C68.7775 32.297 68.5109 32.0304 68.5109 31.675V25.1875C68.5109 24.832 68.7775 24.5654 69.1329 24.5654C69.4884 24.5654 69.755 24.832 69.755 25.1875V31.0529H72.2434C72.5988 31.0529 72.8655 31.3195 72.8655 31.675C72.9543 32.0304 72.6877 32.297 72.3322 32.297Z" fill="#B7B9BE"/>
<path d="M45.9368 32.297C45.759 32.297 45.5813 32.2082 45.4036 32.0304L41.5822 27.0538V31.675C41.5822 32.0304 41.3156 32.297 40.9601 32.297C40.6046 32.297 40.338 32.0304 40.338 31.675V25.1875C40.338 24.832 40.6046 24.5654 40.9601 24.5654C41.1378 24.5654 41.3156 24.6543 41.4933 24.832L45.3147 29.8087V25.1875C45.3147 24.832 45.5813 24.5654 45.9368 24.5654C46.2922 24.5654 46.5589 24.832 46.5589 25.1875V31.675C46.6477 32.0304 46.2922 32.297 45.9368 32.297Z" fill="#B7B9BE"/>
</svg>
