<svg width="150" height="31" viewBox="0 0 150 31" fill="none" xmlns="http://www.w3.org/2000/svg">
<path d="M15.2236 2.02212C15.9736 2.02212 16.5736 2.62212 16.5736 3.37212C16.5736 4.12212 15.9736 4.72212 15.2236 4.72212H15.1486C14.4736 4.72212 13.8736 4.12212 13.8736 3.44712C13.8736 3.07212 14.0236 2.69712 14.2486 2.47212C14.4736 2.17212 14.8486 2.02212 15.2236 2.02212ZM15.2236 0.297119C13.4986 0.297119 12.0736 1.79712 12.1486 3.52212C12.2236 5.09712 13.4986 6.37212 15.0736 6.44712C15.1486 6.44712 15.1486 6.44712 15.2236 6.44712C16.9486 6.44712 18.2986 5.02212 18.2986 3.37212C18.2986 1.72212 16.8736 0.297119 15.2236 0.297119Z" fill="#B7B9BE"/>
<path d="M13.1229 21.9718C14.8479 21.9718 16.2729 23.3968 16.2729 25.1218C16.2729 26.8468 14.8479 28.2718 13.1229 28.2718H9.74788C8.02288 28.2718 6.59788 26.8468 6.59788 25.1218C6.59788 23.3968 8.02288 21.9718 9.74788 21.9718H13.1229ZM13.1229 19.8718H9.74788C6.89788 19.8718 4.57288 22.1968 4.57288 25.0468C4.57288 27.8968 6.89788 30.2218 9.74788 30.2218H13.1229C15.9729 30.2218 18.2979 27.8968 18.2979 25.0468C18.2979 22.1968 15.9729 19.8718 13.1229 19.8718Z" fill="#B7B9BE"/>
<path d="M13.1234 9.82212C14.8484 9.82212 16.2734 11.2471 16.2734 12.9721C16.2734 14.6971 14.8484 16.1221 13.1234 16.1221H5.17342C3.44842 16.1221 2.02342 14.6971 2.02342 12.9721C2.02342 11.2471 3.44842 9.82212 5.17342 9.82212H13.1234ZM13.1234 7.79712H5.17342C2.32342 7.79712 -0.00158691 10.1221 -0.00158691 12.9721C-0.00158691 15.8221 2.32342 18.1471 5.17342 18.1471H13.1234C15.9734 18.1471 18.2984 15.8221 18.2984 12.9721C18.2984 10.1221 15.9734 7.79712 13.1234 7.79712Z" fill="#B7B9BE"/>
<path d="M146.324 8.09727H145.574V7.79727H147.374V8.09727H146.624V10.0473H146.324V8.09727ZM148.724 10.0473L148.124 8.09727V10.0473H147.749V7.79727H148.274L148.874 9.67227L149.474 7.79727H149.999V10.0473H149.699V8.09727L149.099 10.0473H148.724ZM58.5737 30.2223V27.9723H48.2237V19.9473H57.5237V17.7723H48.2237V10.0473H58.5737V7.79727H45.9737V30.2223H58.5737ZM95.7737 30.2223V27.9723H85.4237V19.9473H94.7237V17.7723H85.4237V10.0473H95.7737V7.79727H83.1737V30.2223H95.7737ZM123.149 30.2223V20.9223L130.724 7.79727H128.249L122.099 18.5223L115.874 7.79727H113.324L120.899 20.9223V30.2223H123.149ZM78.5237 30.2223V7.79727H76.2737V26.0973L65.1737 7.79727H62.9237V30.2223H65.1737V11.9223L76.2737 30.2223H78.5237ZM34.1236 20.6223H39.5236V22.4223C39.5236 26.8473 36.7486 28.3473 34.1236 28.3473C31.4986 28.3473 28.7236 26.7723 28.7236 22.4223V15.7473C28.7236 11.3223 31.4986 9.82227 34.1236 9.82227C36.9736 9.82227 38.9236 11.5473 39.3736 14.3973H41.6236C41.0986 10.2723 38.1736 7.57227 34.1236 7.57227C29.5486 7.57227 26.4736 10.8723 26.4736 15.7473V22.4973C26.4736 27.3723 29.5486 30.6723 34.1236 30.6723C38.6986 30.6723 41.7737 27.3723 41.7737 22.4973V18.5223H34.1236V20.6223ZM98.5487 23.4723C98.6237 26.6973 100.724 30.5973 105.824 30.5973C109.949 30.5973 112.499 28.2723 112.499 24.4473C112.499 20.9973 110.174 19.1223 107.999 18.5223L104.099 17.4723C102.224 16.9473 101.174 15.5973 101.174 13.6473C101.174 11.3223 102.824 9.74727 105.374 9.74727C107.774 9.74727 109.424 11.0973 109.949 13.7223H112.199C111.749 10.6473 109.799 7.57227 105.374 7.57227C101.549 7.57227 98.9237 10.0473 98.9237 13.6473C98.9237 16.6473 100.574 18.9723 103.349 19.7223L107.099 20.7723C109.049 21.2973 110.174 22.6473 110.174 24.5223C110.174 27.0723 108.599 28.4223 105.749 28.4223C102.899 28.4223 100.949 26.5473 100.724 23.5473L98.5487 23.4723ZM131.699 23.4723C131.774 26.6973 133.874 30.5973 138.974 30.5973C143.099 30.5973 145.649 28.2723 145.649 24.4473C145.649 20.9973 143.324 19.1223 141.149 18.5223L137.249 17.4723C135.374 16.9473 134.324 15.5973 134.324 13.6473C134.324 11.3223 135.974 9.74727 138.524 9.74727C140.924 9.74727 142.574 11.0973 143.099 13.7223H145.349C144.899 10.6473 142.949 7.57227 138.524 7.57227C134.699 7.57227 132.074 10.0473 132.074 13.6473C132.074 16.6473 133.724 18.9723 136.499 19.7223L140.249 20.7723C142.199 21.2973 143.324 22.6473 143.324 24.5223C143.324 27.0723 141.749 28.4223 138.899 28.4223C136.049 28.4223 134.099 26.5473 133.874 23.5473L131.699 23.4723Z" fill="#B7B9BE"/>
</svg>
