<svg width="268" height="268" viewBox="0 0 268 268" fill="none" xmlns="http://www.w3.org/2000/svg">
<path d="M113.553 69.7785C179.031 59.4645 220.703 49.1182 245 36V182.169C220.613 187.101 194.127 191.581 165.319 195.61C102.029 205.763 63.4836 216.56 42 231V81.3496C64.1089 77.1273 87.8258 73.2595 113.553 69.7785Z" fill="#FCA700"/>
<path d="M57.2912 188.624C57.311 188.591 57.311 188.531 57.3506 188.485C56.1955 187.904 56.0636 186.479 55.1726 185.627L55.1396 185.594C54.2353 185.304 54.4796 184.4 53.3576 184.393C53.3576 184.393 53.6479 184.248 53.6545 184.248C51.8329 182.439 47.3317 177.998 47.3317 177.998C47.2327 178.4 48.0511 177.701 48.8761 177.819C48.8761 177.819 48.9355 177.668 48.9949 177.786C51.1003 175.734 53.4698 174.948 56.1626 173.972C57.509 173.609 57.7136 169.8 55.4102 171.378C55.3838 171.351 55.3243 171.332 55.2979 171.285C54.4927 172.223 53.1529 171.879 52.1365 172.368L52.0969 172.388L50.4073 173.213C49.4899 173.589 48.4008 173.886 47.259 174.176C47.292 174.143 47.3251 174.11 47.3581 174.077C47.3581 174.077 47.4769 172.249 47.4439 171.345C47.4439 171.345 48.5989 169.893 48.2161 168.896C48.8695 167.728 51.1927 165.174 49.0807 164.448C48.3877 164.448 47.8465 163.847 47.6089 164.963C47.5693 164.956 47.5165 164.969 47.4637 164.949C47.3383 166.104 45.9721 166.923 45.5959 168.018L45.5827 168.065C45.6751 169.002 44.9491 169.926 44.9425 169.926C44.5993 170.784 44.1504 171.721 43.6752 172.698C43.4772 172.17 43.2595 171.701 43.0417 171.365C42.2497 170.507 42.5863 158.785 39.6558 161.372C39.7944 163.583 40.494 165.887 39.9264 167.853C39.6492 168.005 40.0716 168.791 40.4148 169.431C40.3884 170.243 40.2234 170.678 40.1772 171.84C38.7252 170.79 32.3891 165.477 32.7785 169.055C33.4583 169.418 33.9533 169.833 34.3097 170.678C34.6397 171.041 37.5504 172.678 37.6428 173.087C37.4514 173.655 40.89 174.11 39.4974 174.533C39.702 174.981 39.9792 175.41 40.3026 175.826C38.7978 175.985 36.9959 176.427 36.0521 177.001C35.8871 177.285 29.8811 177.668 27.703 179.073C26.4028 179.806 25.2545 180.169 26.6075 181.271C27.0959 180.875 28.9307 181.443 28.8911 180.921C29.3399 181.106 32.3759 179.945 32.7125 180.143C32.8775 180.407 35.2667 179.007 34.9829 179.667C36.6395 180.136 38.6592 179.753 40.758 179.219C39.9264 180.539 39.108 182.42 39.0024 183.588C38.2896 185.086 36.4085 188.399 35.8079 190.432C34.9499 191.911 35.247 192.029 36.3294 192.788L36.3492 192.808C36.5736 192.96 36.3228 192.808 37.1742 192.841C37.0884 192.762 36.9629 192.419 36.7979 192.478C36.9101 192.247 38.2038 191.917 37.6626 191.607C37.6428 191.561 38.4876 190.914 38.5734 190.214C39.3258 187.72 41.1276 186.459 42.4609 183.614C42.4279 183.911 44.6718 189.502 44.5662 192.287C44.4012 193.66 47.7277 195.706 47.2459 192.643C47.2855 192.63 47.3185 192.577 47.3779 192.571C46.8433 191.31 47.5494 190.01 47.2722 188.729L47.259 188.677C46.6584 187.898 47.3515 187.251 46.4011 186.617C46.4011 186.617 46.7245 186.65 46.7311 186.657C46.3087 184.842 46.0447 182.624 45.6487 180.638C47.0677 181.925 48.315 183.311 48.8299 184.835L48.8959 184.736C48.8959 184.783 48.9949 184.815 48.909 184.921C50.1037 185.172 50.5129 185.674 51.3775 186.01C51.3775 186.01 52.3015 187.68 53.3773 187.739L55.0141 190.056C55.7203 191.251 59.5286 190.564 57.3176 188.65L57.2912 188.624Z" fill="#101214"/>
<path d="M139.539 133.926C139.611 135.364 139.109 136.771 138.144 137.838C137.178 138.905 135.829 139.545 134.391 139.617C132.954 139.689 131.547 139.187 130.48 138.221C129.413 137.256 128.773 135.906 128.701 134.469C128.692 134.288 128.692 134.107 128.701 133.926V121.717H122.638V133.705C122.638 140.082 127.781 145.25 134.119 145.25C140.457 145.25 145.599 140.091 145.599 133.714V121.717H139.539V133.926Z" fill="white"/>
<path d="M88.1409 114.216H82.0696V121.698H78V127.808H82.0696V133.687C82.0696 140.077 87.2169 145.258 93.567 145.258C94.4065 145.258 95.2436 145.166 96.063 144.983V138.944C95.3978 139.19 94.6939 139.316 93.9845 139.315C90.7575 139.315 88.1409 136.775 88.1409 133.643V127.808H96.0646V121.698H88.1409V114.216Z" fill="white"/>
<path d="M160.199 113.56H150.043V119.631H154.113V138.442H150.043V144.513H164.269V138.442H160.199V113.56Z" fill="white"/>
<path d="M174.366 119.235C176.364 119.235 177.983 117.615 177.983 115.617C177.983 113.62 176.364 112 174.366 112C172.368 112 170.749 113.62 170.749 115.617C170.749 117.615 172.368 119.235 174.366 119.235Z" fill="white"/>
<path d="M108.064 124.843L106.831 121.377H100.884V127.483H103.698V144.515H109.754V132.607C109.751 131.189 110.311 129.827 111.312 128.821C112.312 127.815 113.671 127.247 115.09 127.242H116.926V121.301H115.087C112.285 121.316 110.063 122.13 108.064 124.843Z" fill="white"/>
<path d="M201.897 121.407V123.701C200.606 122.194 198.149 121.118 195.868 121.059C195.706 121.049 195.545 121.044 195.386 121.044C189.348 121.018 184.446 126.355 184.449 132.909C184.452 139.463 189.348 144.8 195.386 144.774C195.544 144.774 195.71 144.774 195.861 144.762C198.147 144.702 200.604 143.626 201.89 142.118V144.406H208V121.407H201.897ZM196.229 139.105C193.015 139.105 190.411 136.392 190.406 133.043C190.402 129.694 193.015 126.981 196.229 126.981C199.442 126.981 202.047 129.694 202.05 133.043C202.053 136.392 199.442 139.105 196.229 139.105Z" fill="white"/>
<path d="M177.539 121.556H167.383V127.608H171.453V144.513H181.601V138.463H177.532L177.539 121.556Z" fill="white"/>
</svg>
